<svg xmlns="http://www.w3.org/2000/svg" id="DL_text" width="200" height="200" viewBox="0 0 457.38 457.38">
  <defs>
    <style>
      .cls-1 {
        font-size: 57.29px;
        fill: #6c2425;
        font-family: Quicksand-Bold, Quicksand;
        font-weight: 700;
      }
    </style>
  </defs>
  <title>download_text</title>
  <g id="Calque_2" data-name="Calque 2">
    <g id="Calque_1-2" data-name="Calque 1">
      <text class="cls-1" transform="translate(340.59 189.25) rotate(79.29)">T</text>
      <text class="cls-1" transform="translate(346.96 222.93) rotate(95.21)">É</text>
      <text class="cls-1" transform="translate(344.27 254.13) rotate(110.19)">L</text>
      <text class="cls-1" transform="translate(333.88 283.06) rotate(125.26)">É</text>
      <text class="cls-1" transform="translate(316.2 308.81) rotate(141.26)">C</text>
      <text class="cls-1" transform="matrix(-0.93, 0.36, -0.36, -0.93, 289.95, 330.76)">H</text>
      <text class="cls-1" transform="translate(253.23 344.83) rotate(176.99)">A</text>
      <text class="cls-1" transform="matrix(-0.97, -0.25, 0.25, -0.97, 218.42, 347.13)">R</text>
      <text class="cls-1" transform="matrix(-0.84, -0.54, 0.54, -0.84, 182.5, 338.3)">G</text>
      <text class="cls-1" transform="matrix(-0.65, -0.76, 0.76, -0.65, 150.47, 317.61)">E</text>
      <text class="cls-1" transform="translate(129.62 294.4) rotate(-114.1)">R</text>
      <text class="cls-1" transform="matrix(-0.19, -0.98, 0.98, -0.19, 115.16, 259.19)"></text>
      <text class="cls-1" transform="matrix(-0.06, -1, 1, -0.06, 112.11, 243.82)"></text>
      <text class="cls-1" transform="translate(111.15 228.19) rotate(-85.8)"></text>
      <text class="cls-1" transform="matrix(0.27, -0.96, 0.96, 0.27, 111.39, 212.95)">L</text>
      <text class="cls-1" transform="translate(119.36 183.24) rotate(-59.52)">E</text>
      <text class="cls-1" transform="matrix(0.67, -0.74, 0.74, 0.67, 136.08, 156.28)"></text>
      <text class="cls-1" transform="matrix(0.76, -0.65, 0.65, 0.76, 146.53, 144.62)"></text>
      <text class="cls-1" transform="translate(158.49 134.46) rotate(-32.96)"></text>
      <text class="cls-1" transform="translate(170.65 125.35) rotate(-21)">P</text>
      <text class="cls-1" transform="translate(201.06 112.87) rotate(-3.46)">D</text>
      <text class="cls-1" transform="translate(240.2 110.9) rotate(13.4)">F</text>
      <text class="cls-1" transform="translate(270.38 118.8) rotate(24.64)"></text>
      <text class="cls-1" transform="matrix(0.85, 0.53, -0.53, 0.85, 284.64, 125.32)"></text>
      <text class="cls-1" transform="matrix(0.77, 0.64, -0.64, 0.77, 297.89, 133.65)"></text>
      <text class="cls-1" transform="matrix(0.68, 0.73, -0.73, 0.68, 309.93, 143.87)">·</text>
      <text class="cls-1" transform="matrix(0.59, 0.81, -0.81, 0.59, 318.53, 152.9)"></text>
    </g>
  </g>
</svg>
