<svg xmlns="http://www.w3.org/2000/svg" width="385" height="73" viewBox="0 0 385.64 73">
  <title>L'Atelier Perché - Mobilier / Agencement</title>
  <g class="AP">
    <path d="M41,47.53H8.4L2.16,64.21a1.1,1.1,0,0,1-1,.84A3.79,3.79,0,0,0,.67,65a1.19,1.19,0,0,1-.56-1.58L23.59.76A1,1,0,0,1,24.8,0,1.47,1.47,0,0,1,26,.76L43,46.07m-33.67-1H40.08L24.7,4.3Z"/>
    <path d="M41.09,12.19A1.23,1.23,0,0,1,42.3,11H61.4a18.12,18.12,0,1,1,0,36.24h-18V71.79A1.15,1.15,0,0,1,42.3,73a1.23,1.23,0,0,1-1.21-1.21ZM61.4,44.8a15.75,15.75,0,1,0,0-31.49h-18V44.8Z"/>
  </g>
  <g class="text">
    <path d="M115.16,14.28a.94.94,0,0,1,.92-.93,1,1,0,0,1,1,.93V39.42a1,1,0,0,1-1,.93.94.94,0,0,1-.92-.93Z"/>
    <path d="M123.49,19.6c1.39-.77,1.93-1.62,1.82-3a1.32,1.32,0,0,1-1-1.35v-.81a1.27,1.27,0,1,1,2.54,0v1c0,2.15-.34,3.31-1,4a4.4,4.4,0,0,1-2,1.24.57.57,0,0,1-.58-.58A.6.6,0,0,1,123.49,19.6Z"/>
    <path d="M144.7,33.37H132.4L130,39.73a.94.94,0,0,1-.89.62c-.07,0-.23,0-.35,0a1,1,0,0,1-.53-1.24l9.37-25a1,1,0,0,1,.92-.58.93.93,0,0,1,.92.58l9.38,25a1,1,0,0,1-.5,1.24c-.16,0-.24,0-.35,0a1,1,0,0,1-.89-.62Zm-11.61-1.89H144L138.57,17Z"/>
    <path d="M159.86,22.38a1,1,0,0,1-.92.92h-2.43V37.07a1.47,1.47,0,0,0,1.38,1.39,1.07,1.07,0,0,1,1,1,1,1,0,0,1-1,.93,3.21,3.21,0,0,1-3.31-3.28V23.3h-2.35c-.93,0-.93-.46-.93-.92s0-.93.93-.93h2.35v-7a1,1,0,0,1,.93-.92,1,1,0,0,1,1,.92v7h2.43A1,1,0,0,1,159.86,22.38Z"/>
    <path d="M165.81,30.94a9.15,9.15,0,0,1,18.28-.69v.15a.88.88,0,0,1-.93.85h-15.5A7.43,7.43,0,0,0,175,38.5a7.09,7.09,0,0,0,6.09-3.44.89.89,0,0,1,1.23-.3,1,1,0,0,1,.31,1.31A9,9,0,0,1,175,40.35,9.29,9.29,0,0,1,165.81,30.94Zm2-1.5h14.31A7.29,7.29,0,0,0,175,23.3,7.39,7.39,0,0,0,167.77,29.44Z"/>
    <path d="M190.92,14.28a.94.94,0,0,1,.92-.93,1,1,0,0,1,1,.93V39.42a1,1,0,0,1-1,.93.94.94,0,0,1-.92-.93Z"/>
    <path d="M200.29,16.21a.95.95,0,0,1,1.89,0v.88a.95.95,0,1,1-1.89,0Zm0,6.17a.95.95,0,0,1,1.89,0v17a.95.95,0,0,1-1.89,0Z"/>
    <path d="M209.74,30.94A9.15,9.15,0,0,1,228,30.25v.15a.87.87,0,0,1-.92.85H211.59a7.44,7.44,0,0,0,7.33,7.25A7.08,7.08,0,0,0,225,35.06a.9.9,0,0,1,1.24-.3,1,1,0,0,1,.31,1.31,9,9,0,0,1-7.64,4.28A9.3,9.3,0,0,1,209.74,30.94Zm2-1.5H226a7.28,7.28,0,0,0-7.09-6.14A7.38,7.38,0,0,0,211.71,29.44Z"/>
    <path d="M233.77,22.42a.92.92,0,0,1,1-.93.91.91,0,0,1,.89.93v4.16a4.66,4.66,0,0,1,.27-.47c1.43-2.23,3.94-4.62,7.56-4.62a.92.92,0,0,1,.93.93.94.94,0,0,1-.93.92A6.8,6.8,0,0,0,238,26.43a16.71,16.71,0,0,0-2.28,4.39.58.58,0,0,0-.08.31v8.29a.91.91,0,0,1-.89.93.92.92,0,0,1-1-.93Z"/>
    <path d="M262.7,14.28a1,1,0,0,1,.93-.93h7.63a7.7,7.7,0,0,1,0,15.39l-6.67.08v10.6a.95.95,0,0,1-1.89,0Zm8.56,12.65a5.9,5.9,0,0,0,5.83-5.87,5.84,5.84,0,0,0-5.83-5.82h-6.67V26.93Z"/>
    <path d="M283,30.94a9.15,9.15,0,0,1,18.28-.69v.15a.87.87,0,0,1-.92.85H284.88a7.45,7.45,0,0,0,7.33,7.25,7.08,7.08,0,0,0,6.09-3.44.9.9,0,0,1,1.24-.3,1,1,0,0,1,.31,1.31,9,9,0,0,1-7.64,4.28A9.3,9.3,0,0,1,283,30.94Zm2-1.5h14.31a7.3,7.3,0,0,0-7.1-6.14A7.38,7.38,0,0,0,285,29.44Z"/>
    <path d="M307.06,22.42a.93.93,0,0,1,1-.93.91.91,0,0,1,.88.93v4.16a3.41,3.41,0,0,1,.28-.47c1.42-2.23,3.93-4.62,7.55-4.62a.92.92,0,0,1,.93.93.94.94,0,0,1-.93.92,6.81,6.81,0,0,0-5.47,3.09A16.71,16.71,0,0,0,309,30.82a.58.58,0,0,0-.08.31v8.29a.91.91,0,0,1-.88.93.93.93,0,0,1-1-.93Z"/>
    <path d="M321.68,30.86a9.52,9.52,0,0,1,9.72-9.41,9.74,9.74,0,0,1,6,2.08.88.88,0,0,1,.11,1.28,1,1,0,0,1-1.27.15A7.7,7.7,0,1,0,331.4,38.5a8,8,0,0,0,4.86-1.66,1,1,0,0,1,1.27.15.91.91,0,0,1-.19,1.35,9.77,9.77,0,0,1-5.94,2A9.54,9.54,0,0,1,321.68,30.86Z"/>
    <path d="M358.94,28.9c0-3.32-2.7-5.56-6-5.56s-6,2.24-6,5.56V39.54c0,.07,0,.11,0,.15s0,.12-.08.16a.88.88,0,0,1-.58.46s0,0-.07,0H346a1.09,1.09,0,0,1-.73-.31,1.47,1.47,0,0,1-.15-.31.83.83,0,0,1,0-.31V14.28a.94.94,0,0,1,.92-.93,1,1,0,0,1,1,.93v10a7.79,7.79,0,0,1,6-2.78c4.36,0,7.91,3.09,7.91,7.45V39.42a.95.95,0,0,1-1.89,0Z"/>
    <path d="M376.53,40.35a9.45,9.45,0,0,1,0-18.9,9.28,9.28,0,0,1,9.11,8.8v.15a.88.88,0,0,1-.93.85H369.2a7.45,7.45,0,0,0,7.33,7.25,7.11,7.11,0,0,0,6.1-3.44.89.89,0,0,1,1.23-.3,1,1,0,0,1,.31,1.31A9,9,0,0,1,376.53,40.35Zm0-17a7.39,7.39,0,0,0-7.21,6.14h14.31A7.3,7.3,0,0,0,376.53,23.3Zm-2.15-4.94a1.49,1.49,0,0,0,1.23-.5l3.08-3a1.15,1.15,0,0,0,.43-.69c0-.38-.89-.89-1.62-.89a1.25,1.25,0,0,0-1.08.7L374,17.59a.81.81,0,0,0-.16.43C373.87,18.21,374.1,18.36,374.38,18.36Z"/>
    <path d="M125.16,64.29a2.45,2.45,0,1,1-2.45-2.44A2.45,2.45,0,0,1,125.16,64.29Z"/>
    <path d="M380.53,64.29a2.45,2.45,0,1,1-2.45-2.44A2.45,2.45,0,0,1,380.53,64.29Z"/>
    <path d="M148.23,64a2.9,2.9,0,0,0-2.86-2.86A2.86,2.86,0,0,0,142.54,64V69l0,0v0a.51.51,0,0,1-.23.25.54.54,0,0,1-.22,0H142a0,0,0,0,1,0,0,.23.23,0,0,1-.12-.06.07.07,0,0,1,0,0l-.06-.06s0,0,0,0,0,0,0,0a.1.1,0,0,0,0,0,.07.07,0,0,0,0-.06V64A2.84,2.84,0,1,0,136,64v5a.39.39,0,0,1-.21.35.15.15,0,0,1-.11.06s0,0-.08,0h-.11a.47.47,0,0,1-.37-.34V60.66a.44.44,0,0,1,.88,0v.88a3.68,3.68,0,0,1,2.83-1.31,3.74,3.74,0,0,1,3.29,2,3.81,3.81,0,0,1,3.3-2A3.73,3.73,0,0,1,149.11,64v5a.44.44,0,0,1-.45.43.43.43,0,0,1-.43-.43Z"/>
    <path d="M157.94,60.21a4.61,4.61,0,1,1-4.35,4.6A4.51,4.51,0,0,1,157.94,60.21Zm0,8.3a3.72,3.72,0,1,0-3.45-3.7A3.6,3.6,0,0,0,157.94,68.51Z"/>
    <path d="M166.85,65v-8.3a.46.46,0,0,1,.92,0V62a4.4,4.4,0,0,1,3.53-1.8,4.6,4.6,0,0,1,0,9.2,4.35,4.35,0,0,1-3.53-1.78V69a.46.46,0,0,1-.92,0Zm.92-.19a3.63,3.63,0,1,0,0-.15Z"/>
    <path d="M180.36,57.66a.45.45,0,0,1,.44-.45.46.46,0,0,1,.47.45v.43a.46.46,0,1,1-.91,0Zm0,3a.44.44,0,0,1,.44-.45.45.45,0,0,1,.47.45V69a.46.46,0,0,1-.47.45.45.45,0,0,1-.44-.45Z"/>
    <path d="M186.44,56.72a.46.46,0,0,1,.92,0V69a.46.46,0,0,1-.92,0Z"/>
    <path d="M192.09,57.66a.46.46,0,0,1,.92,0v.43a.46.46,0,1,1-.92,0Zm0,3a.46.46,0,0,1,.92,0V69a.46.46,0,0,1-.92,0Z"/>
    <path d="M197.78,64.83a4.45,4.45,0,0,1,8.9-.34v.08a.43.43,0,0,1-.45.41h-7.54a3.61,3.61,0,0,0,3.56,3.53,3.47,3.47,0,0,0,3-1.67.43.43,0,0,1,.6-.15.48.48,0,0,1,.15.64,4.4,4.4,0,0,1-3.72,2.08A4.53,4.53,0,0,1,197.78,64.83Zm1-.74h7a3.56,3.56,0,0,0-3.46-3A3.6,3.6,0,0,0,198.74,64.09Z"/>
    <path d="M210.58,60.68a.45.45,0,1,1,.9,0v2a1.34,1.34,0,0,1,.13-.23,4.43,4.43,0,0,1,3.68-2.25.45.45,0,0,1,.45.45.45.45,0,0,1-.45.45,3.34,3.34,0,0,0-2.67,1.5,8.27,8.27,0,0,0-1.1,2.14.29.29,0,0,0,0,.15v4a.45.45,0,1,1-.9,0Z"/>
    <path d="M226.36,68.77l5.12-12.16a.46.46,0,0,1,.6-.24.42.42,0,0,1,.25.59L227.2,69.13a.43.43,0,0,1-.41.28.55.55,0,0,1-.19,0A.48.48,0,0,1,226.36,68.77Z"/>
    <path d="M250.09,60.66V69a.45.45,0,0,1-.45.45.46.46,0,0,1-.45-.45V67.59a4.28,4.28,0,0,1-3.45,1.82,4.61,4.61,0,0,1,0-9.2,4.29,4.29,0,0,1,3.45,1.8V60.66a.45.45,0,0,1,.45-.45A.44.44,0,0,1,250.09,60.66Zm-.9,4.15a3.46,3.46,0,1,0-3.45,3.7A3.59,3.59,0,0,0,249.19,64.81Z"/>
    <path d="M263.79,68.68A4.33,4.33,0,0,1,259.45,73a4.81,4.81,0,0,1-1.92-.43.5.5,0,0,1-.18-.61.42.42,0,0,1,.6-.2,3.44,3.44,0,0,0,4.93-3.08V67.55a4.14,4.14,0,0,1-3.43,1.81,4.58,4.58,0,0,1,0-9.15,4.21,4.21,0,0,1,3.43,1.8V60.66a.47.47,0,0,1,.47-.45.46.46,0,0,1,.44.45Zm-.91-3.91a3.44,3.44,0,1,0-3.43,3.7A3.54,3.54,0,0,0,262.88,64.77Z"/>
    <path d="M268.58,64.83a4.45,4.45,0,0,1,8.9-.34v.08A.43.43,0,0,1,277,65h-7.55a3.62,3.62,0,0,0,3.57,3.53,3.45,3.45,0,0,0,3-1.67.45.45,0,0,1,.61-.15.48.48,0,0,1,.14.64,4.39,4.39,0,0,1-3.71,2.08A4.52,4.52,0,0,1,268.58,64.83Zm1-.74h7a3.55,3.55,0,0,0-3.45-3A3.59,3.59,0,0,0,269.54,64.09Z"/>
    <path d="M288.34,64a2.84,2.84,0,0,0-2.84-2.84A2.89,2.89,0,0,0,282.65,64V69a.46.46,0,0,1-.09.2.4.4,0,0,1-.34.17h-.12a.52.52,0,0,1-.3-.24.07.07,0,0,1,0-.06.1.1,0,0,0,0,0V60.68a.44.44,0,1,1,.88,0v.88A3.73,3.73,0,0,1,289.24,64v5a.45.45,0,0,1-.45.45.44.44,0,0,1-.45-.45Z"/>
    <path d="M293.71,64.79a4.64,4.64,0,0,1,4.73-4.58,4.74,4.74,0,0,1,2.93,1,.42.42,0,0,1,.06.61.46.46,0,0,1-.62.08,3.75,3.75,0,1,0-2.37,6.59,3.88,3.88,0,0,0,2.37-.81.46.46,0,0,1,.62.08.44.44,0,0,1-.1.65,4.74,4.74,0,0,1-7.62-3.64Z"/>
    <path d="M305.24,64.83a4.45,4.45,0,0,1,8.9-.34v.08a.42.42,0,0,1-.45.41h-7.54a3.61,3.61,0,0,0,3.56,3.53,3.47,3.47,0,0,0,3-1.67.43.43,0,0,1,.6-.15.48.48,0,0,1,.15.64,4.4,4.4,0,0,1-3.72,2.08A4.53,4.53,0,0,1,305.24,64.83Zm1-.74h7a3.56,3.56,0,0,0-3.46-3A3.6,3.6,0,0,0,306.2,64.09Z"/>
    <path d="M331.59,64a2.85,2.85,0,1,0-5.69,0v5.14a.56.56,0,0,1-.23.25.64.64,0,0,1-.23,0h-.09l0,0a.24.24,0,0,1-.11-.06.09.09,0,0,1-.06,0l-.06-.06s0,0,0,0,0,0,0,0a.06.06,0,0,0,0,0,.07.07,0,0,0,0-.06V64a2.84,2.84,0,1,0-5.67,0v5a.38.38,0,0,1-.2.35.17.17,0,0,1-.11.06.11.11,0,0,1-.08,0h-.11a.5.5,0,0,1-.38-.34V60.66a.44.44,0,0,1,.43-.43.43.43,0,0,1,.45.43v.88a3.73,3.73,0,0,1,6.12.64,3.82,3.82,0,0,1,3.31-2A3.73,3.73,0,0,1,332.47,64v5a.44.44,0,0,1-.88,0Z"/>
    <path d="M336.73,64.83a4.45,4.45,0,1,1,8.89-.34v.08a.42.42,0,0,1-.44.41h-7.55a3.62,3.62,0,0,0,3.57,3.53,3.45,3.45,0,0,0,3-1.67.43.43,0,0,1,.6-.15.47.47,0,0,1,.15.64,4.4,4.4,0,0,1-3.71,2.08A4.52,4.52,0,0,1,336.73,64.83Zm.95-.74h7a3.55,3.55,0,0,0-3.45-3A3.6,3.6,0,0,0,337.68,64.09Z"/>
    <path d="M356.48,64a2.83,2.83,0,0,0-2.83-2.84A2.89,2.89,0,0,0,350.79,64V69a.31.31,0,0,1-.09.2.38.38,0,0,1-.34.17h-.11a.52.52,0,0,1-.3-.24.07.07,0,0,1,0-.06.07.07,0,0,0,0,0V60.68a.45.45,0,0,1,.45-.45.44.44,0,0,1,.43.45v.88A3.73,3.73,0,0,1,357.38,64v5a.44.44,0,0,1-.44.45.45.45,0,0,1-.46-.45Z"/>
    <path d="M365.73,60.66a.49.49,0,0,1-.46.45h-1.18v6.7a.72.72,0,0,0,.68.68.53.53,0,0,1,.47.47.5.5,0,0,1-.47.45,1.57,1.57,0,0,1-1.62-1.6v-6.7H362c-.45,0-.45-.22-.45-.45s0-.45.45-.45h1.14V56.8a.49.49,0,0,1,.46-.46.51.51,0,0,1,.48.46v3.41h1.18A.49.49,0,0,1,365.73,60.66Z"/>
  </g>
</svg>
